<svg xmlns="http://www.w3.org/2000/svg" viewBox="0 0 405.68 114.44">
	<defs>
		<style>
			.cls-1{fill:#fff;stroke:#fff;stroke-miterlimit:10;stroke-width:2px;}
		</style>
	</defs>
	<title>
		Asset 2
	</title>
	<g id="Layer_2" data-name="Layer 2">
		<g id="Layer_1-2" data-name="Layer 1">
			<path class="cls-1" d="M9.11,79.68a8.34,8.34,0,0,1-2.69-.53,7,7,0,0,1-4.69-5.42L1.88,65A117.48,117.48,0,0,0,1.2,49.51,9.63,9.63,0,0,1,1,47.7c0-2,.81-3,2.44-3a7.79,7.79,0,0,1,4.05,1.37c2.28,1.46,3.58,2.95,3.91,4.44s.6,3,.83,4.45a42.26,42.26,0,0,1,.68,9.22q0,5.28-.53,12.26l-.05.73A2.93,2.93,0,0,1,9.11,79.68Zm.14-37.55a8.74,8.74,0,0,1-2.83-.53q-5.13-1.76-5.13-9.33a4.09,4.09,0,0,1,.54-2.39,2.52,2.52,0,0,1,1.61-.54A8.19,8.19,0,0,1,7.79,30.9a12.6,12.6,0,0,1,2.73,2.45,8.26,8.26,0,0,1,1.91,4.93q0,3.42-2.25,3.81A9.11,9.11,0,0,1,9.25,42.13Z" />
			<path class="cls-1" d="M27.81,79.73H26.68q-10.35,0-10.35-10.84c0-.39,0-.76.05-1.12q.3-6.39.64-23.49c-.43,0-.83,0-1.23,0l-7.08,0c-1.43,0-2.34,0-2.73,0-1.72,0-2.72-.15-3-.46a1.89,1.89,0,0,1-.39-1.25,2.06,2.06,0,0,1,.25-1,4,4,0,0,1,1-1.71,8.26,8.26,0,0,1,5.23-1.76q2.19.15,7.17.24l.93,0q.11-7,.1-9.76a103.1,103.1,0,0,0-.68-14.31,9.12,9.12,0,0,1-.2-1.76c0-1.92.81-2.88,2.44-2.88A7.87,7.87,0,0,1,23,11.27q3.42,2.21,3.81,4.3a69.88,69.88,0,0,1,1.46,13.48c0,2.8-.09,6-.29,9.62l1.91,0a49.9,49.9,0,0,0,7.86-.44l.83-.05c1.1,0,1.66.47,1.66,1.41a4.61,4.61,0,0,1-.56,1.84,6.41,6.41,0,0,1-1.59,2,2.55,2.55,0,0,1-1,.54l-2.68.44a28.91,28.91,0,0,1-4.93.39l-1.86,0c-.23,2.83-.34,5.88-.34,9.13l.05,3.71c0,4.14,0,7-.05,8.69a11.35,11.35,0,0,0,.46,4,1.52,1.52,0,0,0,1.44,1,2.62,2.62,0,0,0,1.66-.68q3.18-2.25,3.18-9.77L34,58.69c0-.78.24-1.17.73-1.17a3.58,3.58,0,0,1,2,.92,10.86,10.86,0,0,1,2.1,2.18,4.84,4.84,0,0,1,1,2.22l0,2.34q0,8.89-4.4,12.21A13.2,13.2,0,0,1,27.81,79.73Z" />
			<path class="cls-1" d="M51.59,79.68a15.81,15.81,0,0,1-5.67-1.07A5.89,5.89,0,0,1,42,72.7a11.32,11.32,0,0,1,.44-2.78,4.83,4.83,0,0,1,1.66-2.69,2,2,0,0,1,1.22-.44,2.86,2.86,0,0,1,2.39,1.42,1.77,1.77,0,0,1,.39,1,1.29,1.29,0,0,1-.15.59,3.37,3.37,0,0,0-.58,1.66c0,1.3,1,2,3.17,2A9.92,9.92,0,0,0,53,73.09a6.57,6.57,0,0,0,2.59-1.34,3.18,3.18,0,0,0,1.22-2.56c0-.62-1.19-1.18-3.56-1.67a19.59,19.59,0,0,1-7.28-2.88q-4.1-2.73-4.1-8.59A8.45,8.45,0,0,1,43.53,51,14.15,14.15,0,0,1,48.07,47a17.25,17.25,0,0,1,8.64-2.3q8.31,0,8.3,5.86c0,.23-.05.91-.17,2.05s-1.16,2.62-3.15,4.45a.9.9,0,0,1-.58.19,3,3,0,0,1-2-1c-.7-.65-1-1.15-1-1.51,0-.13.08-.22.25-.27a1.55,1.55,0,0,0,.58-.41,2.62,2.62,0,0,0,.59-1.76c0-1.07-.82-1.61-2.44-1.61a6,6,0,0,0-5,2.34,3.4,3.4,0,0,0-.79,2,3.08,3.08,0,0,0,2.25,3,16.81,16.81,0,0,0,3,.88,16.41,16.41,0,0,1,5.71,2.25c1.86,1.4,2.78,3.71,2.78,6.93A10.17,10.17,0,0,1,63.3,74a12,12,0,0,1-4.49,4A15.18,15.18,0,0,1,51.59,79.68Z" />
			<path class="cls-1" d="M93.08,80a12.06,12.06,0,0,1-2.9-.35,4.34,4.34,0,0,1-2.45-1.75,6.27,6.27,0,0,1-1.15-3.6q0-5.1,3.1-20.7A85.32,85.32,0,0,0,85,62q-8.91,17-10.6,17.7a6.31,6.31,0,0,1-2,.3,9,9,0,0,1-3.75-.65,5.33,5.33,0,0,1-2.95-3.15,9.74,9.74,0,0,1-.1-1.6,72.47,72.47,0,0,1,1.7-11.7q1.69-8.49,4.2-18.5t3.6-13.8l1.1-.1q1.09,0,2.7.15a12.67,12.67,0,0,1,3.1.7,5,5,0,0,1,2.3,1.6,4,4,0,0,1,.8,2.45l-.1,1q-.11,2-3.3,13.9l-3.1,11.2,1.3-3.1c.86-2.06,2-4.56,3.4-7.5q6.9-14.9,10.6-19.2a3.31,3.31,0,0,1,2.7-1.2q10.2,0,10.2,5v.7a109.67,109.67,0,0,1-3.7,14.6l-3.4,10.7,2-4.2a170.44,170.44,0,0,1,10.4-19.2c2-3.06,3.6-4.6,4.8-4.6a8.66,8.66,0,0,1,5.1,1.8c2.4,1.74,3.6,3.3,3.6,4.7s-.8,4.5-2.4,9.7q-1.41,4.6-2.4,8.7a29.89,29.89,0,0,0-.7,5.6q0,3.3,2.4,3.3t6.55-7q4.14-7,6.25-18.3c1,1.14,1.58,3,1.75,5.6a39.25,39.25,0,0,1-.95,9.85,41.81,41.81,0,0,1-4.9,12.4q-3.7,6.45-7,8.45a10.12,10.12,0,0,1-6.65,1.6q-7.31,0-8.5-8.6c-.14-1.6-.2-3.2-.2-4.8a58,58,0,0,1,.4-6.1,35.52,35.52,0,0,1,1.2-6.4q-1.2,1.9-4.4,8-9,17.1-10.6,17.7A7.8,7.8,0,0,1,93.08,80Z" />
			<path class="cls-1" d="M145.78,71.33c-.67.8-1.4,1.67-2.2,2.6a23.41,23.41,0,0,1-5.3,4.45,9.56,9.56,0,0,1-4.7,1.35,8.59,8.59,0,0,1-5.7-2.1,7.85,7.85,0,0,1-2.8-5.6,20.23,20.23,0,0,1-.2-3q0-5.9,3.2-20l4.2-18.2h1.3a15.87,15.87,0,0,1,6.3,1.2c2.06,1,3.1,2.47,3.1,4.4a6.33,6.33,0,0,1-.2,1.5q-2.5,10.11-3.4,14.4l-1.7,7.3q-1.5,8,.4,7.8c.93,0,2.4-1.06,4.4-3.2a39.35,39.35,0,0,0,8.4-17.3q2-9.6,3.1-14.9l1.9-.1c3.06,0,5.06,1,6,3.1a14.92,14.92,0,0,1,1.1,6q0,5.2-2.9,15.9-1,3.81-1.5,6.6-2,10.2-4.6,21.3A21.55,21.55,0,0,1,165,88.48c3,2.1,4.45,4.55,4.45,7.35s-2.3,5.27-6.9,7.6l-.3-1.4a15.27,15.27,0,0,0-1.3-3.4,20.17,20.17,0,0,0-2.95-4.2,17.7,17.7,0,0,0-5.25-3.9q-4.5,14-9.45,18.1A19.25,19.25,0,0,1,133,113.28a25.85,25.85,0,0,1-10-.8,15.08,15.08,0,0,1-7.7-5.25,12.75,12.75,0,0,1-3.1-8,14.4,14.4,0,0,1,1.4-5.9q3.8-6.49,12-8.2a76.55,76.55,0,0,1,16.3-1.7h1q1.59-6,2.9-11.9Zm-7.1,23.2a32.24,32.24,0,0,0,2.8-6.5h-1.8q-10.5,0-14,3.3c-1.74,1.6-2.6,3.2-2.6,4.8a5.1,5.1,0,0,0,.5,2.1c1.13,1.93,3.25,2.82,6.35,2.65S135.94,98.6,138.68,94.53Z" />
			<path class="cls-1" d="M202.58,29.23a21.67,21.67,0,0,0-1.1-5.7,11,11,0,0,0-2.5-3.8,5.8,5.8,0,0,0-4.7-1.5,8.87,8.87,0,0,0-5.9,2.1c-.27.2-.3.54-.1,1a4.23,4.23,0,0,0,.85,1c.36.34.75.67,1.15,1s.75.65,1.05,1a2.24,2.24,0,0,1,.55.75q.09.51-.45.45a3.55,3.55,0,0,1-.85-.15,10.67,10.67,0,0,1-2-.75,6,6,0,0,0-2.2-.55c-.74-.06-1.2,0-1.4.25a4,4,0,0,0-.6,1.25,8.34,8.34,0,0,0-.8,1.65q-.3.86-.6,1.65a37.15,37.15,0,0,0-1.4,11.6,49.09,49.09,0,0,0,1.2,9.55,31.07,31.07,0,0,0,3.4,9.05,14.78,14.78,0,0,0,2.35,3.25A5.26,5.26,0,0,0,192,64a8.21,8.21,0,0,0,3.7-.55,7.08,7.08,0,0,0,2.5-1.75,15.6,15.6,0,0,0,1.5-2.15,17.75,17.75,0,0,0,1.1-2.35c-1.8.34-3.59.64-5.35.9s-3.52.57-5.25.9a3.19,3.19,0,0,1-.8.1v-2.7c-.07-.93-.12-1.86-.15-2.8s0-1.86,0-2.8a5.35,5.35,0,0,1-.1-1.1v-1.2q-.11-1.7-.15-3.45c0-1.16-.05-2.31-.05-3.45v-.2c1,.07,2,.1,3,.1h3.2a8.22,8.22,0,0,1,3.2.85,31.85,31.85,0,0,1,2.9,1.65c.6.4,1.21.79,1.85,1.15a19.63,19.63,0,0,1,1.75,1.15c.46.34.93.65,1.4,1s.93.59,1.4.85c.26.2.53.42.8.65a9.49,9.49,0,0,0,.8.65c.4.2.76.4,1.1.6s.7.44,1.1.7c0,.07.15.2.45.4s.51.17.65-.1-.15-.38-.65-.75-.82-.58-1-.65a7.38,7.38,0,0,0-1-.85,4.92,4.92,0,0,1-1-.75q-.6-.49-1.35-1.05t-1.35-1a6.5,6.5,0,0,1-.85-.7l-1.15-1a9.73,9.73,0,0,1-1.05-1.1,1.58,1.58,0,0,1-.45-.85c-.07-.33,0-.51.3-.55a6.38,6.38,0,0,1,.7,0h2.5c1.53,0,3.08,0,4.65,0s3.11,0,4.65,0h1.15a6.57,6.57,0,0,1,1.15.1h1l-.2,11.4v.9a33.4,33.4,0,0,1-.55,4.4,30.41,30.41,0,0,1-1.4,4.95,34.77,34.77,0,0,1-2.45,5.15,27.67,27.67,0,0,1-3.6,4.9,24,24,0,0,1-8,5.65,24.59,24.59,0,0,1-11,1.95,20,20,0,0,1-8.4-2,24.35,24.35,0,0,1-7-5.1,32.43,32.43,0,0,1-5.37-7.55,51.77,51.77,0,0,1-3.78-9.35,58.9,58.9,0,0,1-1.69-8q-.6-4.2-.79-8.5a55.71,55.71,0,0,1,2.08-16.7q.6-1.7,1.2-3.3a32.63,32.63,0,0,1,1.39-3.2c.26-.46.55-.7.84-.7a5.39,5.39,0,0,1,.95.1,14.41,14.41,0,0,1,1.74.4c.69.2,1.31.37,1.84.5l3.08,1a23.59,23.59,0,0,1,2.88,1.2c.93.47,1.91.94,2.95,1.4s2.05,1,3.05,1.5q1.09.51,2.1,1.05l1.9,1.05a1.53,1.53,0,0,0,.6.35.77.77,0,0,0,.6,0,.6.6,0,0,0-.3-.5l-1.75-1c-.64-.36-1.22-.71-1.75-1.05a7.15,7.15,0,0,0-1.45-.8c-.5-.2-1-.43-1.55-.7a62.2,62.2,0,0,0-6.39-3.5c-.39-.2-.89-.46-1.49-.8l-1.79-1c-.59-.33-1.16-.68-1.69-1a3.55,3.55,0,0,1-1.09-1.05c-.2-.33-.37-.6-.5-.8s0-.46.3-.8a1.22,1.22,0,0,1,1.1-.35,9,9,0,0,1,1.68.3,14.16,14.16,0,0,1,1.7.6,7.12,7.12,0,0,1,1.19.65,15.48,15.48,0,0,1,1.59.85,2.6,2.6,0,0,0,1.59.55c.26-.06.35-.23.25-.5a2.84,2.84,0,0,0-.5-.8,4.14,4.14,0,0,0-.8-.7,4.25,4.25,0,0,1-.54-.4q-.79-.6-2-1.65a6.43,6.43,0,0,1-1.64-1.85.57.57,0,0,1,.05-.8c.23-.2.48-.43.75-.7a23.09,23.09,0,0,1,7.72-4.6A33,33,0,0,1,193.38,1a27.62,27.62,0,0,1,8.6.85,22.65,22.65,0,0,1,6.5,3,20.21,20.21,0,0,1,4.7,4.4,26.54,26.54,0,0,1,3.1,5.2,39.69,39.69,0,0,1,3.4,14.4Z" />
			<path class="cls-1" d="M272.18,65.63,264,80.23l-21.7-11.8-.3,10.7-15.4.3v-2.1c-.07-.73-.12-1.5-.15-2.3s-.05-1.6-.05-2.4-.1-1.5-.1-2.3,0-1.6-.1-2.4,0-1.48-.05-2.25,0-1.51,0-2.25,0-1.1.1-1.1.2-.1.2-.3a1,1,0,0,0,0-.6c-.07-.2,0,0,.3.5l.25.25c.1.1.11,0,0-.15a2.26,2.26,0,0,1-.25-.85c0-.3-.09-.58-.15-.85a6.13,6.13,0,0,1,.25,1.1c.1.6.25.87.45.8s.25-.26.15-.8a7.58,7.58,0,0,1-.15-1c-.14-.53-.25-1.06-.35-1.6a9.19,9.19,0,0,1-.15-1.7,17.1,17.1,0,0,1-.1-1.8,11.27,11.27,0,0,0-.2-1.9,8.31,8.31,0,0,1-.2-1.7v-1.8q.09-2.3,0-4a27.61,27.61,0,0,0-.6-4.05c-.07-.4-.12-.78-.15-1.15s-.09-.75-.15-1.15v-2a1.23,1.23,0,0,0,0-.35.42.42,0,0,1,0-.35,1.18,1.18,0,0,0,.05-.6c0-.26,0-.13.15.4a1.71,1.71,0,0,1,.25.6,2.2,2.2,0,0,0,.25.7c.13.47.26.92.4,1.35s.26.92.4,1.45.28.94.45,1.4.31.94.45,1.4a20.92,20.92,0,0,0,.8,2.2,25.77,25.77,0,0,0,1.5,4,3.27,3.27,0,0,1,.45.7,2.31,2.31,0,0,0,.35.6q.19,0,.15-.3a3.83,3.83,0,0,0-.25-.75c-.14-.3-.34-.68-.6-1.15a18.37,18.37,0,0,1-.85-2.5c-.24-.86-.49-1.7-.75-2.5-.14-.46-.27-.95-.4-1.45l-.4-1.45c-.14-.46-.25-1-.35-1.45s-.22-1-.35-1.45c-.14-.86-.27-1.7-.4-2.5s-.27-1.63-.4-2.5-.29-1.8-.45-2.6l-.55-2.6a8.47,8.47,0,0,1-.3-1.45,11.28,11.28,0,0,0-.3-1.45,6.25,6.25,0,0,1-.1-1.25V22.33L224,6.13a1.09,1.09,0,0,1,.1-.5,3.22,3.22,0,0,1,1.25.55q.64.45,1.35,1.05L228,8.38c.4.37.76.69,1.1.95l2.75,2.6c.9.87,1.78,1.77,2.65,2.7a37.17,37.17,0,0,1,3.2,3.2l.8.6a9.76,9.76,0,0,1,.8.7c.13.14.48.45,1.05.95s.91.75,1,.75.13,0,0-.3a.72.72,0,0,0-.3-.3l-.9-.85c-.27-.23-.57-.51-.9-.85s-.52-.4-.75-.6a9.34,9.34,0,0,1-.75-.7c-.74-.73-1.4-1.45-2-2.15s-1.27-1.41-2-2.15l-1.95-2.15c-.64-.7-1.25-1.41-1.85-2.15-.14-.2-.35-.48-.65-.85a8.16,8.16,0,0,1-.8-1.15,4.38,4.38,0,0,1-.5-1.2.89.89,0,0,1,.15-.9,1.12,1.12,0,0,1,.65-.25,1.94,1.94,0,0,0,.65-.15A59.14,59.14,0,0,1,238.28,3a42,42,0,0,1,8.85.45A32.86,32.86,0,0,1,255.53,6,29.13,29.13,0,0,1,263,10.93a27.41,27.41,0,0,1,8.55,17.45,29.31,29.31,0,0,1-.75,9.75,29.75,29.75,0,0,1-4,9.2,31.24,31.24,0,0,1-6.2,7,40.28,40.28,0,0,1-7.8,5.1Zm-29.1-20.1a23.34,23.34,0,0,0,6.1-3.9c.06-.06.26-.25.6-.55s.56-.35.7-.15.08.9-.35,1.7-.75,1.37-.95,1.7c-.07.14-.27.47-.6,1s-.34.87,0,1c.13,0,.35-.18.65-.55s.51-.61.65-.75a20.39,20.39,0,0,0,2.8-4.7,28.58,28.58,0,0,0,1-2.85,18.48,18.48,0,0,0,.65-2.95,20.93,20.93,0,0,0,.3-2.5,9.22,9.22,0,0,0-.1-2.4,2.14,2.14,0,0,1-.25-.75,4.68,4.68,0,0,0-.25-.85,15.92,15.92,0,0,0-.65-2.3,7.16,7.16,0,0,0-1.35-2,11.56,11.56,0,0,0-3.8-2.55,18.16,18.16,0,0,0-4.4-1.15Z" />
			<path class="cls-1" d="M275.68,76a8.77,8.77,0,0,0,.3-1.2c.06-.4.13-.8.2-1.2a8.77,8.77,0,0,0,.3-1.2,9.53,9.53,0,0,1,.3-1.3c.26-1.26.51-2.5.75-3.7s.51-2.43.85-3.7a13.18,13.18,0,0,0,.3-1.3c.06-.4.13-.8.2-1.2l.6-2.4c.06-.4.13-.8.2-1.2a6.58,6.58,0,0,1,.3-1.2c.06-.33.13-.7.2-1.1a6.58,6.58,0,0,1,.3-1.2c.26-1.26.53-2.5.8-3.7s.53-2.43.8-3.7a4.12,4.12,0,0,0,.25-1.1,4.67,4.67,0,0,1,.25-1.2,7.58,7.58,0,0,0,.25-1.3,4.67,4.67,0,0,1,.25-1.2c.2-.86.38-1.7.55-2.5s.35-1.63.55-2.5a6.68,6.68,0,0,1,2.15-3.55,23,23,0,0,1,3.55-2.55c.73-.4,1.43-.76,2.1-1.1s1.36-.66,2.1-1a3.4,3.4,0,0,1,.8-.5q.6-.3.3-.6c-.2-.2-.64-.2-1.3,0a9.81,9.81,0,0,0-1.4.5q-.41.11-1.35.45c-.64.24-1.3.45-2,.65a19.48,19.48,0,0,1-1.9.45,1.69,1.69,0,0,1-1.15-.05.55.55,0,0,1-.2-.65,2.66,2.66,0,0,1,.2-.65,4.12,4.12,0,0,1,1.3-2.1c.73-.73,1.58-1.5,2.55-2.3s1.85-1.5,2.65-2.1l3.1-2.25c1.06-.76,2.13-1.48,3.2-2.15a24.31,24.31,0,0,1,2.6-1.4,15.8,15.8,0,0,1,2.7-1c.2-.06.65-.18,1.35-.35s1-.38,1-.65-.25-.15-.55,0a6.59,6.59,0,0,0-.65.25c-.8.14-1.45.27-1.95.4a13.4,13.4,0,0,0-1.85.7c-1.07.47-2.05.94-3,1.4s-1.82,1-2.75,1.5l-1.55.95c-.7.44-1.45.85-2.25,1.25s-1.55.77-2.25,1.1a4.15,4.15,0,0,1-1.45.5q-.81,0-.75-.45a9.26,9.26,0,0,1,.15-.95c.2-.8.38-1.58.55-2.35s.35-1.55.55-2.35l2.1-9.6,23.4-.4L328,76.83l-17.2.9-1.6-8.2a9.14,9.14,0,0,1-1.35.1H303c-.34-.06-.44-.25-.3-.55a3.75,3.75,0,0,1,.65-1,8,8,0,0,1,.95-.9,8.43,8.43,0,0,0,.7-.6c.13-.13.33-.35.6-.65s.23-.55-.1-.75-.74,0-1.4.35-1.14.62-1.4.75q-1.9,1.2-4,2.3a20.09,20.09,0,0,1-1.9.85,7.08,7.08,0,0,1-2.1.45h-.1l-1.8,8Zm22.2-21.8c1.4-.06,2.78-.1,4.15-.1s2.75,0,4.15-.1a14.53,14.53,0,0,1-.25-2q-.06-.9-.15-2.1a2.57,2.57,0,0,0-.4-1.7,2.79,2.79,0,0,1-.6-1.5,7.72,7.72,0,0,1-.25-2.3,5.44,5.44,0,0,0-.45-2.3,6.34,6.34,0,0,1-.5-1.7c-.14-.73-.27-1.36-.4-1.9-.14-.73-.29-1.5-.45-2.3s-.32-1.56-.45-2.3q-.81,3.81-1.6,7.5t-1.6,7.5l-.6,2.6Q298.18,52.83,297.88,54.23Z" />
			<path class="cls-1" d="M386.88,78.63V73.78c0-1.5,0-3,.1-4.45.06-2.33.1-4.65.1-6.95v-7a11,11,0,0,1,.05-1.1c0-.4.05-.76.05-1.1V50.78c0-.83,0-1.61.1-2.35a13.51,13.51,0,0,1,.1-1.65,7.58,7.58,0,0,0,0-1.65,7,7,0,0,1-.05-1.5c0-.46.05-.9.05-1.3a4.13,4.13,0,0,1-.45.55l-.45.45a1.8,1.8,0,0,0-.2.85,3.3,3.3,0,0,0,.1.85,1.77,1.77,0,0,1,0,1.45c-.2.3-.7.42-1.5.35h-1.1a2.29,2.29,0,0,1-1.45-.25A7.81,7.81,0,0,0,381,46l-2.7-1.35c-.87-.43-1.74-.88-2.6-1.35a25,25,0,0,1-3.7-1.8c-.14-.06-.44-.23-.9-.5s-.77-.3-.9-.1.15.37.65.7a9.72,9.72,0,0,1,.95.7c.53.27,1,.52,1.4.75s.83.52,1.3.85c.86.54,1.76,1.12,2.7,1.75a25.26,25.26,0,0,1,2.5,2c.26.27.65.7,1.15,1.3s.65,1.07.45,1.4a7.35,7.35,0,0,0-.55.85,6,6,0,0,1-.65,1c-1.54,2.34-3.14,4.7-4.8,7.1s-3.37,4.67-5.1,6.8l-21.1-25.5.6,39.2h-17.1l-1.1-74.4h17.1q2.49,3.81,4.85,7.65t4.85,7.75c.86,1.34,1.7,2.64,2.5,3.9s1.63,2.57,2.5,3.9c.4.74.8,1.4,1.2,2s.83,1.24,1.3,1.9a40.11,40.11,0,0,0,2.6,4.1l1.2,2.1.1.1a1,1,0,0,0,.15-.2.8.8,0,0,1,.15-.2,1.65,1.65,0,0,1,.2-.5c.13-.26.28-.55.45-.85s.38-.71.65-1.25a1,1,0,0,1,1.05,0,3.58,3.58,0,0,1,.85.5c.46.34,1,.67,1.5,1a14.61,14.61,0,0,1,1.4,1c.93.74,1.81,1.45,2.65,2.15s1.65,1.42,2.45,2.15a9,9,0,0,1,2.4,2l1.05.85a8,8,0,0,0,1.05.75c0,.07.08.14.25.2s.21,0,.15-.1-.17-.36-.5-.7l-1.1-1.1c-.4-.4-.79-.76-1.15-1.1a5.37,5.37,0,0,0-.75-.6c-.87-.93-1.75-1.81-2.65-2.65s-1.79-1.71-2.65-2.65a5.62,5.62,0,0,1-1.15-1c-.3-.36-.62-.71-.95-1.05s-.49-.75-.85-1.25a8.09,8.09,0,0,1-.75-1.15c-.07-.33-.14-.63-.2-.9a1.18,1.18,0,0,1,.2-.9q2.7-5.4,5.4-10.75t5.4-10.75c.13-.26.28-.6.45-1a8.06,8.06,0,0,1,.55-1.1c.33-.73.7-1.45,1.1-2.15s.76-1.41,1.1-2.15l17.1.5-.6,75.3Z" />
		</g>
	</g>
</svg>
