<svg width="149px" height="17px" xmlns="http://www.w3.org/2000/svg" viewBox="0 0 140.3 14.33">
	<defs>
		<style>
			.cls-1{fill:#ecf0f1;}
		</style>
	</defs>
	<title>
		Asset 1
	</title>
	<g id="Layer_2" data-name="Layer 2">
		<g id="Layer_1-2" data-name="Layer 1">
			<path class="cls-1" d="M5.47,12.66a3.8,3.8,0,0,1-2.75-1.2,4.14,4.14,0,0,1,0-5.73,3.84,3.84,0,0,1,2.75-1.2A3.65,3.65,0,0,1,9.09,7.06h1.6A5.24,5.24,0,0,0,5.47,2.93,5.43,5.43,0,0,0,1.6,4.59a5.81,5.81,0,0,0,0,8,5.35,5.35,0,0,0,3.87,1.66A5.41,5.41,0,0,0,10.77,10H9.19A3.82,3.82,0,0,1,5.47,12.66Z" />
			<path class="cls-1" d="M18.26,2.83a5.7,5.7,0,0,0-4,1.7,5.77,5.77,0,0,0,0,8.1,5.66,5.66,0,0,0,8.09,0,5.77,5.77,0,0,0,0-8.1A5.72,5.72,0,0,0,18.26,2.83Zm2.9,8.65a4.15,4.15,0,0,1-2.9,1.21,4,4,0,0,1-2.87-1.21,4.1,4.1,0,0,1,0-5.8,4,4,0,0,1,2.87-1.21,4.12,4.12,0,0,1,2.9,7Z" />
			<path class="cls-1" d="M30.29,3h-4V14.18h4A5.33,5.33,0,0,0,35.8,8.6,5.34,5.34,0,0,0,30.29,3Zm0,9.58h-2.4v-8h2.4a3.81,3.81,0,0,1,3.91,4A3.8,3.8,0,0,1,30.29,12.57Z" />
			<polygon class="cls-1" points="39.52 9.4 44.59 9.4 44.59 7.76 39.52 7.76 39.52 4.61 44.71 4.61 44.71 2.99 37.89 2.99 37.89 14.18 44.72 14.18 44.72 12.57 39.52 12.57 39.52 9.4" />
			<path class="cls-1" d="M56.54,6.14C55,6,53.46,5.82,53.36,4.38a1.83,1.83,0,0,1,.34-1.3A3.33,3.33,0,0,1,56.24,2,2.68,2.68,0,0,1,59.1,3.8l2-.08C60.74,1.16,58.5,0,56.34,0A5.4,5.4,0,0,0,52.1,1.9a3.74,3.74,0,0,0-.76,2.64c.22,2.92,2.78,3.4,5,3.62,1.4.14,2.84.32,3.08,1.38a2.24,2.24,0,0,1,.06.48c0,1.44-1.64,2.28-3.14,2.28-1.3,0-2.88-.68-3-2v.08l0-.3-2,0,0,.38c.26,2.5,2.88,3.78,5,3.78,2.52,0,5.2-1.56,5.2-4.26a5,5,0,0,0-.1-.92C60.84,6.88,58.46,6.38,56.54,6.14Z" />
			<path class="cls-1" d="M51.34,4.56s0,0,0,0h0Z" />
			<polygon class="cls-1" points="72.48 6.1 66.56 6.1 66.56 0.2 64.53 0.2 64.53 14.18 66.56 14.18 66.56 8.1 72.48 8.1 72.48 14.18 74.52 14.18 74.52 0.2 72.48 0.2 72.48 6.1" />
			<path class="cls-1" d="M82.28,0,76.65,14.18h2.18c.45-1.16,1.15-2.84,1.69-4.12h5l1.68,4.12h2.16L83.76,0Zm-1,8.16L83,3.22l1.72,4.94Z" />
			<path class="cls-1" d="M101.3,4.64A4.34,4.34,0,0,0,96.74.18H91.63v14h2v-12h3.11a2.38,2.38,0,0,1,2.54,2.42,2.39,2.39,0,0,1-2.54,2.44H94.38V8l5.1,6.14h2.62L97.68,8.92A4.21,4.21,0,0,0,101.3,4.64Z" />
			<polygon class="cls-1" points="104.03 2.2 106.64 2.2 106.64 12.16 104.03 12.16 104.03 14.18 111.26 14.18 111.26 12.16 108.66 12.16 108.66 2.2 111.26 2.2 111.26 0.2 104.03 0.2 104.03 2.2" />
			<polygon class="cls-1" points="122.14 10.04 115.31 0.18 113.75 0.16 113.75 14.18 115.77 14.18 115.77 4.4 122.53 14.18 124.14 14.18 124.14 0.18 122.14 0.18 122.14 10.04" />
			<path class="cls-1" d="M140.3,7.48h-7.55v2h5.19a4.6,4.6,0,0,1-4.41,2.84,4.9,4.9,0,0,1-4.86-5.14,4.86,4.86,0,0,1,4.86-5.08A4.37,4.37,0,0,1,138,5.2h2.16c-.74-3.72-4-5.1-6.67-5.1a6.82,6.82,0,0,0-6.88,7.1,6.78,6.78,0,0,0,6.88,7.08,7,7,0,0,0,6.39-4.4v0A10,10,0,0,0,140.3,7.48Z" />
		</g>
	</g>
</svg>
